<svg width="82" height="83" viewBox="0 0 82 83" fill="none" xmlns="http://www.w3.org/2000/svg">
<path d="M69.9481 70.6618C77.6803 62.9 82.015 52.3865 82 41.4309C81.9917 40.7547 81.7176 40.1089 81.2364 39.6337C80.7552 39.1581 80.1064 38.8919 79.4302 38.8919C78.7536 38.8919 78.1048 39.1581 77.6236 39.6337C77.1425 40.1089 76.8683 40.7547 76.8601 41.4309C76.8709 51.0319 73.0703 60.2451 66.2934 67.046C63.0035 70.4236 59.0705 73.1081 54.726 74.9413C50.382 76.7741 45.7146 77.7185 40.9996 77.7185C36.2846 77.7185 31.6173 76.7741 27.2731 74.9413C22.9289 73.1081 18.9958 70.4236 15.7059 67.046C8.93803 60.2383 5.13927 51.0289 5.13927 41.4294C5.13927 31.8297 8.93803 22.6202 15.7059 15.8124C18.9767 12.4608 22.8802 9.79177 27.1902 7.96012C31.5002 6.1285 36.131 5.17065 40.814 5.14215C41.8138 5.17347 42.7619 5.59422 43.4561 6.31463C44.1503 7.03501 44.5355 7.99811 44.5295 8.99849C44.5239 9.99886 44.1274 10.9574 43.425 11.6697C42.7226 12.382 41.7696 12.7916 40.7694 12.8113C40.6767 12.8115 40.5841 12.8166 40.4922 12.8267C33.3675 13.0561 26.6073 16.031 21.6251 21.1293C16.3636 26.4259 13.4106 33.5886 13.4106 41.0543C13.4106 48.5202 16.3636 55.6827 21.6251 60.9794C24.1956 63.6125 27.2667 65.7049 30.6577 67.1334C34.0487 68.5619 37.6914 69.2977 41.3709 69.2977C45.0504 69.2977 48.6932 68.5619 52.0843 67.1334C55.475 65.7049 58.5462 63.6125 61.1167 60.9794C66.3864 55.6883 69.3405 48.5221 69.33 41.0543C69.3409 39.8782 69.1185 38.7111 68.676 37.6212C68.233 36.5316 67.579 35.5402 66.7509 34.7046C65.9228 33.869 64.9376 33.2057 63.8518 32.753C62.7661 32.3004 61.6016 32.0673 60.4251 32.0673C59.2486 32.0673 58.0841 32.3004 56.9984 32.753C55.9127 33.2057 54.9274 33.869 54.0993 34.7046C53.2713 35.5402 52.6172 36.5316 52.1743 37.6212C51.7317 38.7111 51.5093 39.8782 51.5202 41.0543C51.5202 41.1293 51.5251 41.1999 51.5311 41.2719C51.5251 41.3439 51.5202 41.4159 51.5202 41.4894C51.5371 43.5401 50.9441 45.5495 49.8168 47.2631C48.6898 48.9763 47.079 50.3159 45.1892 51.1125C43.2994 51.9087 41.2153 52.1258 39.2021 51.7362C37.1885 51.3461 35.3363 50.3673 33.8802 48.923C32.4241 47.4787 31.4298 45.6347 31.0236 43.6245C30.6173 41.6143 30.8173 39.5287 31.5982 37.6325C32.3791 35.736 33.7057 34.1144 35.4097 32.9732C37.1137 31.832 39.1184 31.2228 41.1691 31.2227C41.5093 31.2268 41.8468 31.1634 42.1622 31.0361C42.4776 30.9088 42.7646 30.7201 43.0065 30.4811C43.2484 30.242 43.4408 29.9573 43.5716 29.6435C43.7029 29.3296 43.7704 28.9929 43.7704 28.6528C43.7704 28.3126 43.7029 27.9759 43.5716 27.6621C43.4408 27.3482 43.2484 27.0635 43.0065 26.8244C42.7646 26.5854 42.4776 26.3967 42.1622 26.2694C41.8468 26.1421 41.5093 26.0787 41.1691 26.0828C38.1257 26.0997 35.1553 27.0177 32.6329 28.7208C30.1105 30.424 28.149 32.8362 26.996 35.6529C25.843 38.4696 25.5501 41.5648 26.1543 44.5478C26.7584 47.5309 28.2325 50.2679 30.3906 52.4143C32.5487 54.5602 35.2941 56.0191 38.2806 56.6068C41.2667 57.1941 44.3603 56.884 47.1705 55.7153C49.9807 54.5467 52.382 52.5721 54.0712 50.0403C55.7604 47.5084 56.6616 44.5328 56.6616 41.4894C56.6616 41.4144 56.6567 41.3439 56.6507 41.2719C56.6567 41.1999 56.6616 41.1278 56.6616 41.0543C56.6515 40.5537 56.7415 40.056 56.9264 39.5902C57.1109 39.1248 57.3869 38.7006 57.7372 38.3432C58.0879 37.9854 58.5064 37.7011 58.9681 37.5072C59.4298 37.3133 59.9259 37.2134 60.4266 37.2134C60.9273 37.2134 61.4235 37.3133 61.8851 37.5072C62.3468 37.7011 62.7654 37.9854 63.116 38.3432C63.4663 38.7006 63.7423 39.1248 63.9269 39.5902C64.1117 40.056 64.2018 40.5537 64.1916 41.0543C64.1984 47.1682 61.7783 53.0346 57.4627 57.3651C55.3703 59.5149 52.8685 61.2232 50.1048 62.3899C47.3411 63.5566 44.3716 64.1575 41.3717 64.1575C38.3721 64.1575 35.4027 63.5566 32.639 62.3899C29.8753 61.2232 27.3734 59.5149 25.281 57.3651C20.9713 53.0308 18.5521 47.1667 18.5521 41.0543C18.5521 34.942 20.9713 29.078 25.281 24.7435C27.3751 22.5966 29.877 20.8898 32.64 19.7234C35.4029 18.5569 38.371 17.9544 41.3702 17.9512C41.6008 17.9506 41.8303 17.9188 42.0527 17.8567C44.2407 17.5212 46.2273 16.3896 47.6322 14.6792C49.0371 12.9688 49.7609 10.7999 49.6649 8.58864C49.5689 6.37734 48.6594 4.27938 47.1116 2.6972C45.5638 1.115 43.4865 0.159995 41.2779 0.0153767C41.1856 0.00532758 41.0926 0.000194682 40.9996 0C40.9479 0 40.8965 0 40.8447 0C40.8192 0 40.7945 0 40.7697 0C40.745 0 40.7195 0.00299825 40.6947 0.00374832C35.3519 0.045766 30.0703 1.14495 25.1543 3.23794C20.2383 5.33091 15.7853 8.3763 12.0519 12.1985C4.33249 19.9685 0 30.4765 0 41.4294C0 52.382 4.33249 62.8898 12.0519 70.6599C15.8198 74.5209 20.322 77.5895 25.2935 79.6841C30.2651 81.779 35.6055 82.8584 41.0004 82.8584C46.3953 82.8584 51.7355 81.779 56.7074 79.6841C61.6789 77.5895 66.1808 74.5209 69.9488 70.6599L69.9481 70.6618Z" fill="url(#paint0_linear_1_377)"/>
<defs>
<linearGradient id="paint0_linear_1_377" x1="11.89" y1="70.5125" x2="63.9989" y2="19.5172" gradientUnits="userSpaceOnUse">
<stop stop-color="#41287B"/>
<stop offset="0.123" stop-color="#462779"/>
<stop offset="0.284" stop-color="#572775"/>
<stop offset="0.465" stop-color="#72266E"/>
<stop offset="0.663" stop-color="#982565"/>
<stop offset="0.87" stop-color="#C82459"/>
<stop offset="0.99" stop-color="#E72452"/>
</linearGradient>
</defs>
</svg>
